<?xml version="1.0" encoding="UTF-8"?>
<!DOCTYPE svg PUBLIC "-//W3C//DTD SVG 1.1//EN" "http://www.w3.org/Graphics/SVG/1.1/DTD/svg11.dtd">
<!-- Creator: CorelDRAW X5 -->
<svg xmlns="http://www.w3.org/2000/svg" xml:space="preserve" width="75.6548mm" height="17.2459mm" style="shape-rendering:geometricPrecision; text-rendering:geometricPrecision; image-rendering:optimizeQuality; fill-rule:evenodd; clip-rule:evenodd"
viewBox="0 0 77.0059 17.5539"
 xmlns:xlink="http://www.w3.org/1999/xlink">
 <defs>
  <style type="text/css">
   <![CDATA[
    .fil2 {fill:#F39318;fill-rule:nonzero}
    .fil1 {fill:#583273;fill-rule:nonzero}
    .fil0 {fill:#F39318;fill-rule:nonzero}
   ]]>
  </style>
 </defs>
 <g id="Layer_x0020_1">
  <metadata id="CorelCorpID_0Corel-Layer"/>
  <path class="fil0" d="M5.66723 5.39475c-0.209781,-0.433506 -0.534681,-0.777339 -0.97745,-1.03302 -0.587101,-0.338947 -1.21207,-0.421699 -1.86991,-0.245406 -0.657842,0.176293 -1.15781,0.560433 -1.49666,1.14743 -0.255584,0.44287 -0.365208,0.903044 -0.330092,1.38337l4.67411 -1.25237zm0.0809198 2.32418c0.132016,-0.0354215 0.256093,-0.0186268 0.374572,0.0497733 0.118377,0.0684001 0.195022,0.16754 0.229833,0.29752 0.0353197,0.131915 0.0191357,0.258231 -0.0471269,0.376099 -0.46964,0.700287 -1.1227,1.1626 -1.95521,1.38561 -0.919737,0.246525 -1.79255,0.13222 -2.61641,-0.343527 -0.824364,-0.477579 -1.36179,-1.17583 -1.60822,-2.09567 -0.246424,-0.919737 -0.129675,-1.79113 0.345461,-2.61692 0.475747,-0.823855 1.17441,-1.35935 2.09414,-1.60577 0.919737,-0.246424 1.79265,-0.132118 2.61651,0.343527 0.824364,0.477681 1.36128,1.17379 1.60771,2.09363 0.0354215,0.132016 0.0186268,0.256195 -0.0497733,0.374674 -0.0682983,0.118377 -0.16754,0.195022 -0.299454,0.230341l-5.19189 1.39121c0.20917,0.431369 0.534783,0.777135 0.977043,1.03089 0.587406,0.340881 1.21196,0.421597 1.86981,0.245304 0.594837,-0.159397 1.05593,-0.485213 1.38378,-0.975719 0.0693162,-0.0903859 0.1596,-0.151661 0.269224,-0.180975z"/>
  <path class="fil1" d="M13.4523 6.41546c0,-0.681049 -0.239604,-1.26123 -0.720949,-1.74257 -0.47931,-0.47931 -1.06163,-0.721051 -1.74268,-0.721051 -0.681049,0 -1.26337,0.241741 -1.74257,0.721051 -0.481345,0.481345 -0.721051,1.06152 -0.721051,1.74257 0,0.683187 0.239706,1.26337 0.721051,1.74268 0.479208,0.481345 1.06152,0.720949 1.74257,0.720949 0.681049,0 1.26337,-0.239604 1.74268,-0.720949 0.481345,-0.47931 0.720949,-1.05949 0.720949,-1.74268zm0 -5.92363c0,-0.134459 0.0483483,-0.252225 0.145045,-0.348922 0.0966966,-0.0945591 0.212325,-0.142907 0.346886,-0.142907 0.136597,0 0.252225,0.0483483 0.348922,0.142907 0.0966966,0.0966966 0.145045,0.214463 0.145045,0.348922l0 5.92363c0,0.952309 -0.338438,1.76578 -1.01114,2.44052 -0.672601,0.672703 -1.48618,1.009 -2.43838,1.009 -0.952207,0 -1.76568,-0.336301 -2.43838,-1.009 -0.672703,-0.674739 -1.01104,-1.48821 -1.01104,-2.44052 0,-0.952207 0.338336,-1.76364 1.01104,-2.43838 0.672703,-0.672601 1.48618,-1.009 2.43838,-1.009 0.952207,0 1.76578,0.336402 2.43838,1.009 0.00844823,0.00844823 0.0168965,0.0167947 0.0252429,0.0252429l0 -3.51049zm7.83853 5.4318c-0.0903859,-0.472999 -0.315231,-0.889201 -0.676774,-1.25074 -0.47931,-0.47931 -1.06163,-0.721051 -1.74268,-0.721051 -0.681049,0 -1.26337,0.241741 -1.74257,0.721051 -0.361543,0.361543 -0.58649,0.777746 -0.676876,1.25074l4.8389 0zm-0.523383 2.26596c0.136698,0 0.252225,0.0483483 0.348922,0.145045 0.0966966,0.0966966 0.145045,0.212325 0.145045,0.346886 0,0.136597 -0.0483483,0.254363 -0.142907,0.35106 -0.634839,0.554937 -1.38531,0.832405 -2.24713,0.832405 -0.952207,0 -1.76568,-0.336301 -2.43838,-1.009 -0.672703,-0.674739 -1.01104,-1.48821 -1.01104,-2.44052 0,-0.952207 0.338336,-1.76364 1.01104,-2.43838 0.672703,-0.672601 1.48618,-1.009 2.43838,-1.009 0.952207,0 1.76578,0.336402 2.43838,1.009 0.672703,0.674739 1.01114,1.48618 1.01114,2.43838 0,0.136698 -0.0483483,0.252327 -0.145045,0.349024 -0.0966966,0.0966966 -0.212325,0.145045 -0.348922,0.145045l-5.37501 0c0.0903859,0.470861 0.315333,0.8891 0.676876,1.24861 0.479208,0.481345 1.06152,0.720949 1.74257,0.720949 0.615906,0 1.1456,-0.195429 1.58918,-0.584353 0.0903859,-0.0693162 0.193393,-0.105145 0.306884,-0.105145zm3.52301 -1.77413c0,0.683187 0.239706,1.26337 0.721051,1.74268 0.479208,0.481345 1.06152,0.720949 1.74257,0.720949 0.681049,0 1.26337,-0.239604 1.74268,-0.720949 0.481345,-0.47931 0.720949,-1.05949 0.720949,-1.74268 0,-0.681049 -0.239604,-1.26123 -0.720949,-1.74257 -0.47931,-0.47931 -1.06163,-0.721051 -1.74268,-0.721051 -0.681049,0 -1.26337,0.241741 -1.74257,0.721051 -0.481345,0.481345 -0.721051,1.06152 -0.721051,1.74257zm0 5.91315c0,0.134561 -0.0483483,0.252225 -0.145045,0.346886 -0.0966966,0.0965948 -0.212325,0.144943 -0.346785,0.144943 -0.136698,0 -0.252327,-0.0483483 -0.348922,-0.144943 -0.0966966,-0.0946609 -0.145045,-0.212325 -0.145045,-0.346886l0 -5.91315c0,-0.952207 0.338336,-1.76364 1.01104,-2.43838 0.672703,-0.672601 1.48618,-1.009 2.43838,-1.009 0.952207,0 1.76578,0.336402 2.43838,1.009 0.672703,0.674739 1.01114,1.48618 1.01114,2.43838 0,0.952309 -0.338438,1.76578 -1.01114,2.44052 -0.672601,0.672703 -1.48618,1.009 -2.43838,1.009 -0.952207,0 -1.76568,-0.336301 -2.43838,-1.009 -0.00844823,-0.00834644 -0.0167947,-0.0167947 -0.0252429,-0.0252429l0 3.49787zm13.7959 -5.91315c0,0.952309 -0.338438,1.76578 -1.01114,2.44052 -0.672601,0.672703 -1.48618,1.009 -2.43838,1.009 -0.952207,0 -1.76568,-0.336301 -2.43838,-1.009 -0.672703,-0.674739 -1.01104,-1.48821 -1.01104,-2.44052 0,-0.952207 0.338336,-1.76364 1.01104,-2.43838 0.672703,-0.672601 1.48618,-1.009 2.43838,-1.009 0.952207,0 1.76578,0.336402 2.43838,1.009 0.672703,0.674739 1.01114,1.48618 1.01114,2.43838zm-3.44952 -2.46363c-0.681049,0 -1.26337,0.241741 -1.74257,0.721051 -0.481345,0.481345 -0.721051,1.06152 -0.721051,1.74257 0,0.683187 0.239706,1.26337 0.721051,1.74268 0.479208,0.481345 1.06152,0.720949 1.74257,0.720949 0.681049,0 1.26337,-0.239604 1.74268,-0.720949 0.481345,-0.47931 0.720949,-1.05949 0.720949,-1.74268 0,-0.681049 -0.239604,-1.26123 -0.720949,-1.74257 -0.47931,-0.47931 -1.06163,-0.721051 -1.74268,-0.721051zm4.43328 -3.44739c0,-0.136597 0.0483483,-0.252225 0.145045,-0.348922 0.0965948,-0.0966966 0.212224,-0.145045 0.348922,-0.145045 0.134459,0 0.250088,0.0483483 0.346785,0.145045 0.0966966,0.0966966 0.145045,0.212325 0.145045,0.348922l0 8.37464 0.493967 0c0.134561,0 0.25019,0.0483483 0.346886,0.145045 0.0966966,0.0966966 0.145045,0.212325 0.145045,0.348922 0,0.134561 -0.0483483,0.25019 -0.145045,0.346886 -0.0966966,0.0966966 -0.212325,0.145045 -0.346886,0.145045l-0.985796 0c-0.136698,0 -0.252327,-0.0483483 -0.348922,-0.145045 -0.0966966,-0.0966966 -0.145045,-0.212325 -0.145045,-0.346886l0 -8.8686zm6.40488 3.44739c-0.681049,0 -1.26337,0.241741 -1.74257,0.721051 -0.481345,0.481345 -0.721051,1.06152 -0.721051,1.74257 0,0.683187 0.239706,1.26337 0.721051,1.74268 0.479208,0.481345 1.06152,0.720949 1.74257,0.720949 0.681049,0 1.26337,-0.239604 1.74268,-0.720949 0.481345,-0.47931 0.720949,-1.05949 0.720949,-1.74268 0,-0.681049 -0.239604,-1.26123 -0.720949,-1.74257 -0.47931,-0.47931 -1.06163,-0.721051 -1.74268,-0.721051zm2.46363 4.8789c-0.689498,0.689498 -1.51142,1.03425 -2.46363,1.03425 -0.952207,0 -1.76568,-0.336301 -2.43838,-1.009 -0.672703,-0.674739 -1.01104,-1.48821 -1.01104,-2.44052 0,-0.952207 0.338336,-1.76364 1.01104,-2.43838 0.672703,-0.672601 1.48618,-1.009 2.43838,-1.009 0.952207,0 1.76578,0.336402 2.43838,1.009 0.672703,0.674739 1.01114,1.48618 1.01114,2.43838l0 2.95759c0,0.134561 -0.0483483,0.25019 -0.145045,0.346886 -0.0966966,0.0966966 -0.212325,0.145045 -0.348922,0.145045 -0.134561,0 -0.25019,-0.0483483 -0.346886,-0.145045 -0.0966966,-0.0966966 -0.145045,-0.212325 -0.145045,-0.346886l0 -0.542315zm3.44942 0.294365c0,0.205913 -0.0734894,0.380476 -0.216499,0.523383 -0.142907,0.145045 -0.317368,0.216499 -0.523383,0.216499 -0.206015,0 -0.380476,-0.0714537 -0.523383,-0.216499 -0.143009,-0.142907 -0.216499,-0.31747 -0.216499,-0.523383 0,-0.203979 0.0734894,-0.37844 0.216499,-0.523485 0.142907,-0.142907 0.317368,-0.214361 0.523383,-0.214361 0.206015,0 0.380476,0.0714537 0.523383,0.214361 0.143009,0.145045 0.216499,0.319506 0.216499,0.523485zm6.34197 -0.948034c0.136597,0 0.252225,0.0483483 0.348922,0.145045 0.0966966,0.0966966 0.145045,0.212224 0.145045,0.348922 0,0.134459 -0.0525215,0.256399 -0.155529,0.361543 -0.634839,0.554937 -1.38531,0.832405 -2.24713,0.832405 -0.952207,0 -1.76568,-0.336301 -2.43838,-1.009 -0.672703,-0.674739 -1.01104,-1.48821 -1.01104,-2.44052 0,-0.952207 0.338336,-1.76364 1.01104,-2.43838 0.672703,-0.672601 1.48618,-1.009 2.43838,-1.009 0.861821,0 1.61229,0.277468 2.24713,0.830369 0.115629,0.103007 0.172323,0.231258 0.172323,0.382511 0,0.134561 -0.0483483,0.252327 -0.142907,0.346886 -0.0966966,0.0966966 -0.214361,0.145045 -0.348922,0.145045 -0.119802,0 -0.222809,-0.0357268 -0.313195,-0.109318 -0.460378,-0.407754 -0.99852,-0.611733 -1.61443,-0.611733 -0.681049,0 -1.26337,0.241741 -1.74257,0.721051 -0.481345,0.481345 -0.721051,1.06152 -0.721051,1.74257 0,0.683187 0.239706,1.26337 0.721051,1.74268 0.479208,0.481345 1.06152,0.720949 1.74257,0.720949 0.615906,0 1.15191,-0.199704 1.60812,-0.603285 0.0862126,-0.065143 0.187082,-0.0987323 0.300574,-0.0987323zm8.43774 -1.76161c0,0.952309 -0.338438,1.76578 -1.01114,2.44052 -0.672601,0.672703 -1.48618,1.009 -2.43838,1.009 -0.952207,0 -1.76568,-0.336301 -2.43838,-1.009 -0.672703,-0.674739 -1.01104,-1.48821 -1.01104,-2.44052 0,-0.952207 0.338336,-1.76364 1.01104,-2.43838 0.672703,-0.672601 1.48618,-1.009 2.43838,-1.009 0.952207,0 1.76578,0.336402 2.43838,1.009 0.672703,0.674739 1.01114,1.48618 1.01114,2.43838zm-3.44952 -2.46363c-0.681049,0 -1.26337,0.241741 -1.74257,0.721051 -0.481345,0.481345 -0.721051,1.06152 -0.721051,1.74257 0,0.683187 0.239706,1.26337 0.721051,1.74268 0.479208,0.481345 1.06152,0.720949 1.74257,0.720949 0.681049,0 1.26337,-0.239604 1.74268,-0.720949 0.481345,-0.47931 0.720949,-1.05949 0.720949,-1.74268 0,-0.681049 -0.239604,-1.26123 -0.720949,-1.74257 -0.47931,-0.47931 -1.06163,-0.721051 -1.74268,-0.721051zm5.41908 5.42122c0,0.134561 -0.0483483,0.25019 -0.145045,0.346886 -0.0966966,0.0966966 -0.212325,0.145045 -0.346785,0.145045 -0.136698,0 -0.252327,-0.0483483 -0.348922,-0.145045 -0.0966966,-0.0966966 -0.145045,-0.212325 -0.145045,-0.346886l0 -5.91305c0,-0.134561 0.0483483,-0.252225 0.145045,-0.346886 0.0965948,-0.0966966 0.212224,-0.145045 0.348922,-0.145045 0.134459,0 0.250088,0.0483483 0.346785,0.145045 0.0966966,0.0946609 0.145045,0.212325 0.145045,0.346886l0 0.130286c0.489794,-0.416202 1.06366,-0.622217 1.72374,-0.622217 0.74833,0 1.38734,0.264847 1.91704,0.794642 0.109318,0.109318 0.210188,0.226983 0.300574,0.35106 0.0903859,-0.124077 0.191357,-0.241741 0.302711,-0.35106 0.529796,-0.529796 1.16667,-0.794642 1.915,-0.794642 0.746294,0 1.38531,0.264847 1.915,0.794642 0.529694,0.529694 0.794541,1.16657 0.794541,1.915l0 3.69534c0,0.134561 -0.0483483,0.25019 -0.145045,0.346886 -0.0966966,0.0966966 -0.212224,0.145045 -0.346785,0.145045 -0.136698,0 -0.252225,-0.0483483 -0.348922,-0.145045 -0.0966966,-0.0966966 -0.145045,-0.212325 -0.145045,-0.346886l0 -3.69534c0,-0.477172 -0.168252,-0.882891 -0.504553,-1.21929 -0.336301,-0.336301 -0.744157,-0.506588 -1.21919,-0.506588 -0.477172,0 -0.882891,0.170288 -1.21919,0.506588 -0.336301,0.336402 -0.504451,0.742121 -0.504451,1.21929l0 3.69534c0,0.134561 -0.0483483,0.25019 -0.145045,0.346886 -0.0966966,0.0966966 -0.212325,0.145045 -0.349024,0.145045 -0.134459,0 -0.250088,-0.0483483 -0.346785,-0.145045 -0.0966966,-0.0966966 -0.145045,-0.212325 -0.145045,-0.346886l0 -3.69534c0,-0.477172 -0.16815,-0.882891 -0.504553,-1.21929 -0.338336,-0.336301 -0.744055,-0.506588 -1.22123,-0.506588 -0.475136,0 -0.880753,0.170288 -1.21919,0.506588 -0.336402,0.336402 -0.504553,0.742121 -0.504553,1.21929l0 3.69534z"/>
  <path class="fil2" d="M38.9731 12.2244l0.156954 0 0 -1.25309c0,-0.0954752 0.0340983,-0.177413 0.102295,-0.24449 0.0670769,-0.0681965 0.150134,-0.102295 0.24795,-0.102295 0.0954752,0 0.177311,0.0340983 0.24449,0.102295 0.0681965,0.0670769 0.101175,0.149015 0.101175,0.24449l0 1.25309 0.417322 0c0.0954752,0 0.176191,0.0340983 0.243268,0.101175 0.0659573,0.0681965 0.0989359,0.149015 0.0989359,0.24449 0,0.0978162 -0.0329786,0.180772 -0.0989359,0.248968 -0.0670769,0.0671787 -0.147793,0.101277 -0.243268,0.101277l-0.417322 0 0 1.67601c0,0.441242 0.222809,0.662931 0.66629,0.662931 0.0955769,0 0.177413,0.0329786 0.24337,0.101175 0.0670769,0.0682983 0.100056,0.149015 0.100056,0.24449 0,0.0978162 -0.0329786,0.180772 -0.100056,0.24907 -0.0659573,0.0670769 -0.147793,0.101175 -0.24337,0.101175 -0.907421,0 -1.3622,-0.45254 -1.3622,-1.35884l0 -1.67601 -0.156954 0c-0.0932359,0 -0.172832,-0.0340983 -0.241029,-0.101277 -0.0670769,-0.0681965 -0.101175,-0.151152 -0.101175,-0.248968 0,-0.0954752 0.0340983,-0.176293 0.101175,-0.24449 0.0681965,-0.0670769 0.147793,-0.101175 0.241029,-0.101175z"/>
  <path id="1" class="fil2" d="M41.5327 15.6049l0 -3.03149c0,-0.0977144 0.0340983,-0.179652 0.101277,-0.247849 0.0681965,-0.0670769 0.148913,-0.101175 0.244388,-0.101175 0.0955769,0 0.177413,0.0340983 0.245609,0.101175 0.0671787,0.0681965 0.102397,0.150134 0.104636,0.247849l0 3.03149c-0.00223929,0.0978162 -0.0374572,0.180772 -0.104636,0.24907 -0.0681965,0.0670769 -0.150032,0.101175 -0.245609,0.101175 -0.0954752,0 -0.176191,-0.0340983 -0.244388,-0.101175 -0.0671787,-0.0682983 -0.101277,-0.151254 -0.101277,-0.24907z"/>
  <path id="12" class="fil2" d="M42.9052 15.6049l0 -4.63014c0,-0.0978162 0.0329786,-0.180874 0.101175,-0.24795 0.0671787,-0.0681965 0.150134,-0.102295 0.24795,-0.102295 0.0954752,0 0.177413,0.0340983 0.24449,0.102295 0.0681965,0.0670769 0.102295,0.150134 0.102295,0.24795l0 2.59819 1.99215 -1.29512c0.0557787,-0.0364393 0.117156,-0.0534376 0.186472,-0.0534376 0.048959,0 0.0944573,0.00905894 0.136495,0.026159 0.0420376,0.0182197 0.0784769,0.0431572 0.110336,0.0750162 0.0306376,0.031859 0.0556769,0.069418 0.0750162,0.111456 0.0182197,0.0420376 0.0272786,0.0864162 0.0272786,0.133034 0,0.125095 -0.0443786,0.217211 -0.133034,0.277468l-1.39518 0.90508 1.43274 1.61239c0.0636162,0.0716573 0.0954752,0.152373 0.0954752,0.24337 0,0.0466179 -0.00905894,0.0908948 -0.0272786,0.133034 -0.0193393,0.0431572 -0.0443786,0.0795966 -0.0750162,0.112575 -0.031859,0.031859 -0.0682983,0.0567965 -0.110336,0.0750162 -0.0420376,0.0171 -0.0875359,0.026159 -0.136495,0.026159 -0.0932359,0 -0.171713,-0.0295179 -0.23309,-0.0898769l-1.53961 -1.72944 -0.405922 0.267188 0 1.20189c0,0.0955769 -0.0340983,0.178532 -0.102295,0.246729 -0.0670769,0.069418 -0.149015,0.103516 -0.24449,0.103516 -0.0978162,0 -0.180772,-0.0340983 -0.24795,-0.103516 -0.0681965,-0.0681965 -0.101175,-0.151152 -0.101175,-0.246729z"/>
  <path id="123" class="fil2" d="M46.6087 15.6084l0 -4.6336c0,-0.0978162 0.0329786,-0.180874 0.0989359,-0.24795 0.0648376,-0.0681965 0.147793,-0.102295 0.247849,-0.102295 0.100056,0 0.181993,0.0340983 0.24795,0.102295 0.0659573,0.0670769 0.0977144,0.150134 0.0977144,0.24795l0 4.28447 0.160415 0c0.0954752,0 0.177311,0.0329786 0.244388,0.101175 0.0682983,0.0682983 0.102397,0.150134 0.102397,0.24795 0,0.0954752 -0.0340983,0.177311 -0.102397,0.245609 -0.0670769,0.0670769 -0.148913,0.101175 -0.244388,0.101175l-0.509438 0c-0.0955769,0 -0.176293,-0.0340983 -0.24337,-0.101175 -0.0670769,-0.0682983 -0.100056,-0.150134 -0.100056,-0.245609z"/>
  <path id="1234" class="fil2" d="M50.1063 12.9203c-0.164893,0 -0.317267,0.0306376 -0.45936,0.0932359 -0.142093,0.0624965 -0.266068,0.145554 -0.369585,0.251309 -0.104534,0.105756 -0.187591,0.229629 -0.248968,0.371824 -0.0602572,0.142093 -0.0909966,0.293347 -0.0909966,0.45254 0,0.160313 0.0307393,0.311567 0.0909966,0.45366 0.0613769,0.142195 0.144434,0.266068 0.248968,0.370704 0.103516,0.105756 0.227491,0.189932 0.369585,0.252429 0.142093,0.0613769 0.294467,0.0932359 0.45936,0.0932359 0.162654,0 0.313908,-0.031859 0.456001,-0.0932359 0.142093,-0.0624965 0.266068,-0.146673 0.371824,-0.253549 0.105756,-0.106875 0.188711,-0.23085 0.25019,-0.371824 0.0602572,-0.140973 0.0908948,-0.291108 0.0908948,-0.45142 0,-0.159193 -0.0306376,-0.310447 -0.0908948,-0.45142 -0.0614787,-0.140973 -0.144434,-0.264949 -0.25019,-0.370704 -0.105756,-0.106875 -0.229731,-0.191052 -0.371824,-0.253549 -0.142093,-0.0625983 -0.293347,-0.0932359 -0.456001,-0.0932359zm1.16891 2.68806l0 -0.0659573c-0.166013,0.133034 -0.346785,0.235329 -0.542315,0.305867 -0.195632,0.0716573 -0.404802,0.106875 -0.626594,0.106875 -0.515037,0 -0.955159,-0.181891 -1.31894,-0.545776 -0.363885,-0.365004 -0.546997,-0.805126 -0.546997,-1.32016 0,-0.515138 0.183113,-0.954039 0.546997,-1.31904 0.363783,-0.363885 0.803905,-0.545776 1.31894,-0.545776 0.510558,0 0.950578,0.181891 1.31904,0.545776 0.363885,0.365004 0.546896,0.803905 0.546896,1.31904l0 1.51915c0,0.0954752 -0.0340983,0.177311 -0.102295,0.245609 -0.0670769,0.0670769 -0.148913,0.101175 -0.24449,0.101175 -0.0978162,0 -0.180772,-0.0340983 -0.247849,-0.101175 -0.0681965,-0.0682983 -0.102397,-0.150134 -0.102397,-0.245609z"/>
  <path id="12345" class="fil2" d="M57.4053 14.0892c0,-0.159193 -0.0306376,-0.310447 -0.0908948,-0.45142 -0.0614787,-0.140973 -0.144434,-0.264949 -0.25019,-0.370704 -0.105756,-0.106875 -0.229731,-0.191052 -0.371824,-0.253549 -0.142093,-0.0625983 -0.293347,-0.0932359 -0.456001,-0.0932359 -0.164893,0 -0.317267,0.0306376 -0.45936,0.0932359 -0.142093,0.0624965 -0.266068,0.145554 -0.369585,0.251309 -0.104534,0.105756 -0.187591,0.229629 -0.248968,0.371824 -0.0602572,0.142093 -0.0909966,0.293347 -0.0909966,0.45254 0,0.160313 0.0307393,0.311567 0.0909966,0.45366 0.0613769,0.142195 0.144434,0.266068 0.248968,0.370704 0.103516,0.105756 0.227491,0.189932 0.369585,0.252429 0.142093,0.0613769 0.294467,0.0932359 0.45936,0.0932359 0.162654,0 0.313908,-0.031859 0.456001,-0.0932359 0.142093,-0.0624965 0.266068,-0.146673 0.371824,-0.253549 0.105756,-0.106875 0.188711,-0.23085 0.25019,-0.371824 0.0602572,-0.140973 0.0908948,-0.291108 0.0908948,-0.45142zm-1.16891 -1.86482c0.442361,0 0.831184,0.136393 1.16891,0.409383l0 -1.66247c0,-0.100056 0.0329786,-0.181891 0.0989359,-0.247849 0.0648376,-0.0659573 0.147895,-0.0989359 0.24795,-0.0989359 0.0977144,0 0.180772,0.0329786 0.247849,0.0989359 0.0681965,0.0659573 0.102295,0.147793 0.102295,0.247849l0 3.11791c0,0.519617 -0.183011,0.959637 -0.546896,1.32016 -0.368465,0.363885 -0.808485,0.545776 -1.31904,0.545776 -0.515037,0 -0.955159,-0.181891 -1.31894,-0.545776 -0.363885,-0.365004 -0.546997,-0.805126 -0.546997,-1.32016 0,-0.515138 0.183113,-0.954039 0.546997,-1.31904 0.363783,-0.363885 0.803905,-0.545776 1.31894,-0.545776z"/>
  <path id="123456" class="fil2" d="M61.6228 13.7435c-0.0374572,-0.122856 -0.0932359,-0.234311 -0.168252,-0.335486 -0.0738966,-0.101175 -0.160313,-0.187591 -0.259249,-0.259249 -0.0989359,-0.0727769 -0.20805,-0.128454 -0.326326,-0.168252 -0.119395,-0.0397983 -0.24225,-0.0602572 -0.368465,-0.0602572 -0.126214,0 -0.250088,0.020459 -0.369483,0.0602572 -0.120616,0.0397983 -0.229731,0.0954752 -0.329786,0.168252 -0.100056,0.0716573 -0.186472,0.158073 -0.260368,0.259249 -0.0727769,0.101175 -0.127436,0.212631 -0.162654,0.335486l2.24458 0zm-0.150032 1.16209c0.100056,0 0.183011,0.0329786 0.248968,0.0989359 0.0648376,0.0648376 0.0978162,0.147793 0.0978162,0.247849 0,0.0978162 -0.0329786,0.180772 -0.100056,0.25019 -0.343426,0.301286 -0.750467,0.45254 -1.21899,0.45254 -0.515037,0 -0.955159,-0.181891 -1.31894,-0.545776 -0.363885,-0.365004 -0.546997,-0.805126 -0.546997,-1.32016 0,-0.515138 0.183113,-0.954039 0.546997,-1.31904 0.363783,-0.363885 0.803905,-0.545776 1.31894,-0.545776 0.510558,0 0.950578,0.181891 1.31904,0.545776 0.181891,0.179652 0.318386,0.380883 0.410502,0.601555 0.0909966,0.22057 0.136393,0.460479 0.136393,0.717489 0,0.100056 -0.0340983,0.183011 -0.102295,0.248968 -0.0670769,0.0648376 -0.150134,0.0978162 -0.247849,0.0978162l-2.63809 0c0.037559,0.121634 0.0932359,0.234209 0.166013,0.334265 0.0738966,0.101277 0.159193,0.188813 0.258129,0.26047 0.0989359,0.0715555 0.20805,0.128454 0.326326,0.168252 0.119395,0.0397983 0.24337,0.0602572 0.371824,0.0602572 0.146673,0 0.280929,-0.0226983 0.402563,-0.0670769 0.122754,-0.0443786 0.23655,-0.111456 0.339965,-0.200111 0.0670769,-0.0557787 0.143315,-0.0841769 0.229731,-0.0864162z"/>
  <path id="1234567" class="fil2" d="M63.5957 14.0892c0,0.160313 0.0307393,0.311567 0.0909966,0.45366 0.0613769,0.142195 0.144434,0.266068 0.248968,0.370704 0.103516,0.105756 0.227491,0.189932 0.369585,0.252429 0.142093,0.0613769 0.294467,0.0932359 0.45936,0.0932359 0.162654,0 0.313908,-0.031859 0.456001,-0.0932359 0.142093,-0.0624965 0.266068,-0.146673 0.371824,-0.253549 0.105756,-0.106875 0.188711,-0.23085 0.25019,-0.371824 0.0602572,-0.140973 0.0908948,-0.291108 0.0908948,-0.45142 0,-0.159193 -0.0306376,-0.310447 -0.0908948,-0.45142 -0.0614787,-0.140973 -0.144434,-0.264949 -0.25019,-0.370704 -0.105756,-0.106875 -0.229731,-0.191052 -0.371824,-0.253549 -0.142093,-0.0625983 -0.293347,-0.0932359 -0.456001,-0.0932359 -0.164893,0 -0.317267,0.0306376 -0.45936,0.0932359 -0.142093,0.0624965 -0.266068,0.145554 -0.369585,0.251309 -0.104534,0.105756 -0.187591,0.229629 -0.248968,0.371824 -0.0602572,0.142093 -0.0909966,0.293347 -0.0909966,0.45254zm1.16891 1.86594c-0.44684,0 -0.835764,-0.136495 -1.16891,-0.409383l0 1.66247c0,0.0989359 -0.0340983,0.181891 -0.102295,0.247849 -0.0670769,0.0648376 -0.150134,0.0978162 -0.24795,0.0978162 -0.100056,0 -0.183011,-0.0329786 -0.247849,-0.0978162 -0.0659573,-0.0659573 -0.0989359,-0.148913 -0.0989359,-0.247849l0 -3.11902c0,-0.515138 0.183113,-0.954039 0.546997,-1.31904 0.363783,-0.363885 0.803905,-0.545776 1.31894,-0.545776 0.510558,0 0.950578,0.181891 1.31904,0.545776 0.181891,0.179652 0.318386,0.380883 0.410502,0.601555 0.0909966,0.22057 0.136393,0.460479 0.136393,0.717489 0,0.519617 -0.183011,0.959637 -0.546896,1.32016 -0.186472,0.184232 -0.388924,0.320626 -0.608374,0.410502 -0.218331,0.0897751 -0.454779,0.135273 -0.710669,0.135273z"/>
  <path id="12345678" class="fil2" d="M70.8947 14.0892c0,0.519617 -0.183011,0.959637 -0.546896,1.32016 -0.368465,0.363885 -0.808485,0.545776 -1.31904,0.545776 -0.515037,0 -0.955159,-0.181891 -1.31894,-0.545776 -0.363885,-0.365004 -0.546997,-0.805126 -0.546997,-1.32016 0,-0.515138 0.183113,-0.954039 0.546997,-1.31904 0.363783,-0.363885 0.803905,-0.545776 1.31894,-0.545776 0.510558,0 0.950578,0.181891 1.31904,0.545776 0.181891,0.181993 0.318386,0.383224 0.408263,0.602674 0.0897751,0.22057 0.136393,0.45936 0.138632,0.716369zm-1.86594 -1.16891c-0.164893,0 -0.317267,0.0306376 -0.45936,0.0932359 -0.142093,0.0624965 -0.266068,0.145554 -0.369585,0.251309 -0.104534,0.105756 -0.187591,0.229629 -0.248968,0.371824 -0.0602572,0.142093 -0.0909966,0.293347 -0.0909966,0.45254 0,0.160313 0.0307393,0.311567 0.0909966,0.45366 0.0613769,0.142195 0.144434,0.266068 0.248968,0.370704 0.103516,0.105756 0.227491,0.189932 0.369585,0.252429 0.142093,0.0613769 0.294467,0.0932359 0.45936,0.0932359 0.162654,0 0.313908,-0.031859 0.456001,-0.0932359 0.142093,-0.0624965 0.266068,-0.146673 0.371824,-0.253549 0.105756,-0.106875 0.188711,-0.23085 0.25019,-0.371824 0.0602572,-0.140973 0.0908948,-0.291108 0.0908948,-0.45142 0,-0.159193 -0.0306376,-0.310447 -0.0908948,-0.45142 -0.0614787,-0.140973 -0.144434,-0.264949 -0.25019,-0.370704 -0.105756,-0.106875 -0.229731,-0.191052 -0.371824,-0.253549 -0.142093,-0.0625983 -0.293347,-0.0932359 -0.456001,-0.0932359z"/>
  <path id="123456789" class="fil2" d="M71.3939 15.6084l0 -4.6336c0,-0.0978162 0.0329786,-0.180874 0.0989359,-0.24795 0.0648376,-0.0681965 0.147793,-0.102295 0.247849,-0.102295 0.100056,0 0.181993,0.0340983 0.24795,0.102295 0.0659573,0.0670769 0.0977144,0.150134 0.0977144,0.24795l0 4.28447 0.160415 0c0.0954752,0 0.177311,0.0329786 0.244388,0.101175 0.0682983,0.0682983 0.102397,0.150134 0.102397,0.24795 0,0.0954752 -0.0340983,0.177311 -0.102397,0.245609 -0.0670769,0.0670769 -0.148913,0.101175 -0.244388,0.101175l-0.509438 0c-0.0955769,0 -0.176293,-0.0340983 -0.24337,-0.101175 -0.0670769,-0.0682983 -0.100056,-0.150134 -0.100056,-0.245609z"/>
  <path id="12345678910" class="fil2" d="M74.8916 12.9203c-0.164893,0 -0.317267,0.0306376 -0.45936,0.0932359 -0.142093,0.0624965 -0.266068,0.145554 -0.369585,0.251309 -0.104534,0.105756 -0.187591,0.229629 -0.248968,0.371824 -0.0602572,0.142093 -0.0909966,0.293347 -0.0909966,0.45254 0,0.160313 0.0307393,0.311567 0.0909966,0.45366 0.0613769,0.142195 0.144434,0.266068 0.248968,0.370704 0.103516,0.105756 0.227491,0.189932 0.369585,0.252429 0.142093,0.0613769 0.294467,0.0932359 0.45936,0.0932359 0.162654,0 0.313908,-0.031859 0.456001,-0.0932359 0.142093,-0.0624965 0.266068,-0.146673 0.371824,-0.253549 0.105756,-0.106875 0.188711,-0.23085 0.25019,-0.371824 0.0602572,-0.140973 0.0908948,-0.291108 0.0908948,-0.45142 0,-0.159193 -0.0306376,-0.310447 -0.0908948,-0.45142 -0.0614787,-0.140973 -0.144434,-0.264949 -0.25019,-0.370704 -0.105756,-0.106875 -0.229731,-0.191052 -0.371824,-0.253549 -0.142093,-0.0625983 -0.293347,-0.0932359 -0.456001,-0.0932359zm1.16891 2.68806l0 -0.0659573c-0.166013,0.133034 -0.346785,0.235329 -0.542315,0.305867 -0.195632,0.0716573 -0.404802,0.106875 -0.626594,0.106875 -0.515037,0 -0.955159,-0.181891 -1.31894,-0.545776 -0.363885,-0.365004 -0.546997,-0.805126 -0.546997,-1.32016 0,-0.515138 0.183113,-0.954039 0.546997,-1.31904 0.363783,-0.363885 0.803905,-0.545776 1.31894,-0.545776 0.510558,0 0.950578,0.181891 1.31904,0.545776 0.363885,0.365004 0.546896,0.803905 0.546896,1.31904l0 1.51915c0,0.0954752 -0.0340983,0.177311 -0.102295,0.245609 -0.0670769,0.0670769 -0.148913,0.101175 -0.24449,0.101175 -0.0978162,0 -0.180772,-0.0340983 -0.247849,-0.101175 -0.0681965,-0.0682983 -0.102397,-0.150134 -0.102397,-0.245609z"/>
 </g>
</svg>
